#!OML:ASF H:\Terrain\Patient Classification 1\Walking\steve\steve.ASF
:FULLY-SPECIFIED
:DEGREES
91
root 6.76216 15.5535 -30.8087 4.086 -7.28161 2.54746
lowerback -0.20777 1.96275 -2.3704
upperback -2.34092 2.58523 -0.353071
thorax -2.37437 1.3351 0.913633
lowerneck -8.8716 0.925105 -2.96512
upperneck 18.4404 1.31943 2.32362
head 7.05882 0.632802 1.35996
rclavicle -1.04859e-014 9.54166e-015
rhumerus -52.9052 -15.8742 -72.8785
rradius 22.2265
rwrist 6.67525
rhand -18.5763 -32.6236
rfingers 7.12502
rthumb 7.71417 -62.4629
lclavicle -1.04859e-014 9.54166e-015
lhumerus -24.6859 10.0294 83.4744
lradius 25.8181
lwrist 14.3868
lhand -24.0902 -11.8906
lfingers 7.12502
lthumb 2.39026 18.0757
rfemur -33.3306 4.46133 19.9551
rtibia 57.3486
rfoot -19.1267 1.99208
rtoes -16.9373
lfemur -10.4915 -0.799317 -26.8446
ltibia 27.3079
lfoot -20.3193 0.659767
ltoes 3.87987
92
root 6.76462 15.5635 -30.6555 4.06938 -7.21267 2.46966
lowerback -0.412163 1.86491 -2.14462
upperback -2.17343 2.46566 -0.310952
thorax -2.07474 1.26761 0.844877
lowerneck -9.06343 0.969481 -3.06202
upperneck 18.4734 1.36912 2.49403
head 7.09969 0.665251 1.43763
rclavicle -1.82719e-014 2.18663e-015
rhumerus -53.4083 -16.3578 -72.2103
rradius 22.1177
rwrist 7.0202
rhand -15.7209 -37.3438
rfingers 7.12502
rthumb 10.4694 -67.0631
lclavicle -1.82719e-014 2.18663e-015
lhumerus -23.4143 9.19721 83.8745
lradius 26.32
lwrist 14.8059
lhand -24.0872 -11.9702
lfingers 7.12502
lthumb 2.39313 17.9961
rfemur -33.9984 4.7593 20.0263
rtibia 55.5814
rfoot -19.242 2.16367
rtoes -17.2206
lfemur -9.42555 -0.626876 -26.8549
ltibia 26.4825
lfoot -20.3677 0.860723
ltoes 1.73395
93
root 6.76981 15.5536 -30.5021 4.01712 -7.06526 2.48668
lowerback -0.486694 1.71009 -1.97442
upperback -2.04744 2.26461 -0.26384
thorax -1.89195 1.16227 0.806727
lowerneck -9.37251 1.02953 -3.1145
upperneck 18.7154 1.43774 2.64876
head 7.22906 0.707843 1.50841
rclavicle 2.28043e-014 -4.37326e-015
rhumerus -53.8923 -16.9019 -71.3687
rradius 21.9381
rwrist 7.31876
rhand -19.394 -33.9268
rfingers 7.12502
rthumb 6.92484 -63.7936
lclavicle 2.28043e-014 -4.37326e-015
lhumerus -22.309 8.20316 84.2643
lradius 26.8929
lwrist 15.5806
lhand -24.7032 -11.5452
lfingers 7.12502
lthumb 1.79822 18.427
rfemur -34.5937 4.81079 19.9842
rtibia 53.8027
rfoot -19.1129 2.40799
rtoes -17.9689
lfemur -8.27895 -0.576902 -26.9491
ltibia 25.5792
lfoot -20.3833 0.385559
ltoes 2.41777
94
root 6.77342 15.548 -30.3527 3.85612 -6.88009 2.97983
lowerback -0.354282 1.55645 -2.35706
upperback -2.01509 2.05337 -0.302102
thorax -1.93958 1.06292 0.980809
lowerneck -9.25977 1.2225 -2.87666
upperneck 18.7202 1.66483 2.61882
head 7.20569 0.830079 1.47767
rclavicle 9.21165e-015 6.95746e-015
rhumerus -54.604 -17.3113 -70.4103
rradius 21.8352
rwrist 7.29428
rhand -19.5177 -33.1343
rfingers 7.12502
rthumb 6.80545 -63.005
lclavicle 9.21165e-015 6.95746e-015
lhumerus -21.3276 7.40521 84.5976
lradius 27.3063
lwrist 16.157
lhand -25.1214 -11.5422
lfingers 7.12502
lthumb 1.39427 18.433
rfemur -35.1357 4.6878 19.4033
rtibia 52.0341
rfoot -19.0099 2.9995
rtoes -18.06
lfemur -7.0853 -0.437058 -27.5507
ltibia 24.6899
lfoot -20.4299 0.137226
ltoes 1.93973
95
root 6.77219 15.5649 -30.2081 3.97074 -6.88767 3.13378
lowerback -0.365198 1.48048 -2.51868
upperback -2.09306 1.9507 -0.248659
thorax -2.01767 1.0164 1.1264
lowerneck -8.98167 1.17305 -3.32154
upperneck 18.2989 1.64764 2.71394
head 7.01532 0.800749 1.57267
rclavicle -1.51892e-014 -7.15625e-015
rhumerus -55.4665 -17.6886 -69.4409
rradius 21.8331
rwrist 7.56191
rhand -19.4097 -32.7758
rfingers 7.12502
rthumb 6.90963 -62.643
lclavicle -1.51892e-014 -7.15625e-015
lhumerus -20.6046 6.61597 84.8999
lradius 28.1968
lwrist 16.9879
lhand -24.8134 -11.5592
lfingers 7.12502
lthumb 1.69176 18.4139
rfemur -35.9704 4.91826 19.1345
rtibia 50.2326
rfoot -18.9234 3.47939
rtoes -18.2987
lfemur -6.16496 -0.230192 -27.7903
ltibia 23.7336
lfoot -20.47 0.756575
ltoes -1.8288
96
root 6.76648 15.5682 -30.0777 4.29531 -6.84072 2.89612
lowerback -0.39743 1.39436 -2.35015
upperback -2.19062 1.83913 -0.102908
thorax -2.09477 0.96082 1.18272
lowerneck -9.05925 1.10753 -3.25693
upperneck 18.2335 1.60152 2.436
head 7.01348 0.759308 1.46804
rclavicle 3.40108e-015 1.19271e-014
rhumerus -56.1974 -18.1072 -68.4431
rradius 21.7521
rwrist 8.02126
rhand -19.1092 -32.6437
rfingers 7.12502
rthumb 7.19975 -62.5012
lclavicle 3.40108e-015 1.19271e-014
lhumerus -19.9312 4.63885 85.3113
lradius 29.442
lwrist 19.2499
lhand -24.8776 -11.2491
lfingers 7.12502
lthumb 1.62976 18.7244
rfemur -37.0698 5.41414 19.2548
rtibia 48.4287
rfoot -18.4812 3.44112
rtoes -18.4959
lfemur -5.45547 -0.135947 -27.5301
ltibia 22.6526
lfoot -20.2982 0.585692
ltoes -1.93894
97
root 6.76054 15.5518 -29.9512 4.39769 -6.55342 2.89957
lowerback -0.18152 1.23307 -2.43361
upperback -2.25571 1.61874 0.0270688
thorax -2.28097 0.856246 1.36035
lowerneck -8.96084 1.10072 -3.16868
upperneck 18.1358 1.60746 2.25893
head 6.96715 0.752969 1.39444
rclavicle -1.53421e-014 -9.54166e-015
rhumerus -56.762 -18.3583 -67.5172
rradius 21.455
rwrist 8.43188
rhand -18.8623 -32.4352
rfingers 7.12502
rthumb 7.43805 -62.2844
lclavicle -1.53421e-014 -9.54166e-015
lhumerus -19.172 2.77784 85.6661
lradius 30.2381
lwrist 20.6241
lhand -25.8015 -11.5924
lfingers 7.12502
lthumb 0.7375 18.3861
rfemur -37.9277 5.77371 19.0836
rtibia 46.6094
rfoot -17.9449 3.23902
rtoes -17.599
lfemur -4.53472 -0.218002 -27.4856
ltibia 21.5701
lfoot -20.0479 -0.37302
ltoes 1.43968
98
root 6.75993 15.5457 -29.8045 4.25667 -6.33886 3.14009
lowerback 0.0729795 1.0929 -2.68665
upperback -2.27586 1.42202 0.0841997
thorax -2.44491 0.765766 1.55913
lowerneck -8.94119 1.22382 -3.07434
upperneck 18.2202 1.745 2.33736
head 6.98659 0.831527 1.41644
rclavicle -5.77873e-015 7.95139e-015
rhumerus -57.2958 -18.2994 -67.0452
rradius 21.2679
rwrist 8.1999
rhand -19.2648 -32.094
rfingers 7.12502
rthumb 7.04959 -61.9566
lclavicle -5.77873e-015 7.95139e-015
lhumerus -18.1717 2.87723 85.8471
lradius 30.23
lwrist 19.8409
lhand -26.8535 -12.5131
lfingers 7.12502
lthumb -0.27862 17.4665
rfemur -38.3708 6.00751 18.6407
rtibia 44.7578
rfoot -17.6322 3.25915
rtoes -16.46
lfemur -3.26573 -0.225263 -27.7642
ltibia 20.4764
lfoot -19.9136 -1.02761
ltoes 2.89497
99
root 6.7597 15.5467 -29.6521 4.20701 -6.22121 3.3518
lowerback 0.114525 1.02383 -2.82364
upperback -2.25931 1.3262 0.0531284
thorax -2.4494 0.720216 1.60566
lowerneck -9.1865 1.32489 -2.99681
upperneck 18.5123 1.82695 2.59947
head 7.1194 0.898064 1.50175
rclavicle -1.90453e-014 -1.19271e-015
rhumerus -57.8915 -18.5134 -66.5661
rradius 21.6311
rwrist 8.55921
rhand -18.0762 -33.4395
rfingers 7.12502
rthumb 8.19677 -63.2605
lclavicle -1.90453e-014 -1.19271e-015
lhumerus -17.2703 2.97356 85.9689
lradius 30.6181
lwrist 19.6772
lhand -26.9891 -12.936
lfingers 7.12502
lthumb -0.40958 17.0433
rfemur -38.8443 6.22981 18.2373
rtibia 42.8746
rfoot -17.3094 3.36289
rtoes -16.2313
lfemur -2.07118 -0.0205027 -28.0169
ltibia 19.3182
lfoot -19.7182 -1.32627
ltoes 2.30382
100
root 6.75533 15.5488 -29.5043 4.31124 -6.04041 3.42271
lowerback 0.0437191 0.96216 -2.80929
upperback -2.271 1.24642 0.0637834
thorax -2.41754 0.679928 1.61172
lowerneck -9.07994 1.30179 -3.17425
upperneck 18.3302 1.80338 2.70261
head 7.03923 0.884355 1.55904
rclavicle 1.50847e-014 -3.97569e-015
rhumerus -58.7517 -19.4588 -64.9581
rradius 21.2727
rwrist 10.199
rhand -17.8962 -33.4555
rfingers 7.12502
rthumb 8.37047 -63.2696
lclavicle 1.50847e-014 -3.97569e-015
lhumerus -16.6329 2.54004 86.0038
lradius 31.3501
lwrist 19.5889
lhand -26.1849 -13.5757
lfingers 7.12502
lthumb 0.367133 16.4037
rfemur -39.4171 6.32582 18.0224
rtibia 40.962
rfoot -16.948 3.51732
rtoes -16.0898
lfemur -1.09749 0.31099 -28.0753
ltibia 18.2427
lfoot -19.5038 -1.34363
ltoes -0.23022
101
root 6.75456 15.549 -29.3529 4.36743 -5.75809 3.5074
lowerback -0.0904128 0.853093 -2.80113
upperback -2.21574 1.10735 0.128191
thorax -2.27938 0.608632 1.67932
lowerneck -8.88729 1.1757 -3.32897
upperneck 17.9488 1.69079 2.49316
head 6.88705 0.803419 1.50063
rclavicle 3.50218e-014 3.57812e-015
rhumerus -59.3895 -19.8706 -63.9398
rradius 21.1907
rwrist 11.4628
rhand -17.4653 -34.2075
rfingers 7.12502
rthumb 8.7863 -64.0046
lclavicle 3.50218e-014 3.57812e-015
lhumerus -15.7724 2.57752 85.9809
lradius 31.8589
lwrist 19.3857
lhand -24.9464 -14.0489
lfingers 7.12502
lthumb 1.56332 15.9251
rfemur -39.8424 6.27892 17.7946
rtibia 39.0929
rfoot -16.5736 3.73903
rtoes -15.3221
lfemur -0.106566 0.715323 -28.1385
ltibia 17.3533
lfoot -19.3573 -1.46889
ltoes -2.99515
102
root 6.75276 15.5344 -29.2058 4.49118 -5.41397 3.50595
lowerback -0.2256 0.761596 -2.72138
upperback -2.18319 0.991726 0.177839
thorax -2.16332 0.548026 1.69028
lowerneck -8.89294 1.06778 -3.05828
upperneck 17.8833 1.55398 2.19468
head 6.87688 0.730519 1.34732
rclavicle 2.26894e-014 9.14409e-015
rhumerus -59.9472 -19.0475 -64.6072
rradius 22.1218
rwrist 10.0863
rhand -16.734 -34.32
rfingers 7.12502
rthumb 9.49203 -64.0862
lclavicle 2.26894e-014 9.14409e-015
lhumerus -14.7578 2.71389 85.9594
lradius 32.616
lwrist 19.9944
lhand -23.9782 -12.8703
lfingers 7.12502
lthumb 2.4984 17.0948
rfemur -40.3351 6.12564 17.6813
rtibia 37.3476
rfoot -16.035 4.23441
rtoes -14.0768
lfemur 0.831043 0.827604 -28.0836
ltibia 16.4048
lfoot -19.0352 -2.16054
ltoes -1.50421
